<svg width="829" height="217" viewBox="0 0 829 217" fill="none" xmlns="http://www.w3.org/2000/svg">
<g opacity="0.06">
<path fill-rule="evenodd" clip-rule="evenodd" d="M381.778 0.671875C466.921 0.671875 545.549 29.8868 609.047 79.2557C616.715 108.879 622.633 144.969 625.572 173.183C565.777 102.888 478.72 58.6044 381.778 58.6044C201.464 58.6044 55.2929 211.753 55.2929 400.672C55.2929 589.591 201.464 742.738 381.778 742.738C480.404 742.738 568.813 696.919 628.677 624.492C643.837 636.378 660.343 646.354 677.634 653.47C607.626 743.304 501.102 800.671 381.778 800.671C170.927 800.671 0 621.585 0 400.672C0 179.759 170.927 0.671875 381.778 0.671875Z" fill="#3C3C3C"/>
<path fill-rule="evenodd" clip-rule="evenodd" d="M614.925 201.311C554.714 132.76 463.656 91.5333 360.629 85.9851C463.523 160.3 527.55 301.385 548.856 419.332C577.49 309.696 642.732 314.019 614.925 201.311Z" fill="#3C3C3C"/>
<path fill-rule="evenodd" clip-rule="evenodd" d="M702.282 633.521C920.132 553.903 829.531 182.561 633.178 64.8604C664.417 176.791 669.235 264.209 587.466 374.731C519.76 479.52 614.746 608.091 702.282 633.521Z" fill="#3C3C3C"/>
</g>
</svg>
